<?xml version="1.0" encoding="utf-8"?>
<!-- Generator: Adobe Illustrator 22.1.0, SVG Export Plug-In . SVG Version: 6.00 Build 0)  -->
<svg version="1.1" id="Vrstva_1" xmlns="http://www.w3.org/2000/svg" xmlns:xlink="http://www.w3.org/1999/xlink" x="0px" y="0px"
	 viewBox="0 0 448 319" style="enable-background:new 0 0 448 319;" xml:space="preserve">
<path d="M193.5,261.1l-65.6-65.6H424c13.3,0,24-10.7,24-24v-24c0-13.3-10.7-24-24-24H127.9l65.6-65.6c9.4-9.4,9.4-24.6,0-33.9
	l-17-17c-9.4-9.4-24.6-9.4-33.9,0L7,142.5c-9.4,9.4-9.4,24.6,0,33.9L142.5,312c9.4,9.4,24.6,9.4,33.9,0l17-17
	C202.8,285.7,202.8,270.5,193.5,261.1L193.5,261.1z"/>
</svg>
